<svg id="Layer_1" data-name="Layer 1" xmlns="http://www.w3.org/2000/svg" viewBox="0 0 562.46 130.96"><defs><style>.cls-1{stroke:#fff;stroke-miterlimit:10;stroke-width:3.9px;}.cls-2{font-size:72px;font-family:Rajdhani-Light, Rajdhani;}</style></defs><title>InstaProfile</title><g id="_Group_" data-name="&lt;Group&gt;"><path id="_Compound_Path_" data-name="&lt;Compound Path&gt;" class="cls-1" d="M450,342.07a17.86,17.86,0,0,0-10.22-10.22,25.62,25.62,0,0,0-8.49-1.63c-3.74-.16-4.93-.21-14.45-.21s-10.71,0-14.44.21a25.41,25.41,0,0,0-8.49,1.63,17.84,17.84,0,0,0-10.23,10.22,25.65,25.65,0,0,0-1.62,8.49c-.16,3.74-.22,4.93-.22,14.45s0,10.71.22,14.44a25.56,25.56,0,0,0,1.62,8.5A17.84,17.84,0,0,0,394,398.17a25.54,25.54,0,0,0,8.49,1.62c3.73.16,4.92.22,14.44.22s10.71,0,14.45-.22a25.49,25.49,0,0,0,8.49-1.62A17.86,17.86,0,0,0,450,388a25.63,25.63,0,0,0,1.63-8.5c.16-3.73.21-4.92.21-14.44s0-10.71-.21-14.45A25.46,25.46,0,0,0,450,342.07Zm-4.68,37.08a19.37,19.37,0,0,1-1.21,6.5,10.84,10.84,0,0,1-2.63,4,11,11,0,0,1-4,2.62,19.34,19.34,0,0,1-6.49,1.22c-3.7.16-4.79.21-14.14.21s-10.47,0-14.15-.21a19.22,19.22,0,0,1-6.49-1.22,11.64,11.64,0,0,1-6.66-6.65,19.55,19.55,0,0,1-1.21-6.5c-.16-3.7-.22-4.81-.22-14.14s0-10.47.22-14.15a19.29,19.29,0,0,1,1.21-6.49,11.64,11.64,0,0,1,6.66-6.65,19.09,19.09,0,0,1,6.49-1.22c3.71-.16,4.81-.22,14.15-.22s10.46,0,14.14.22a18.91,18.91,0,0,1,6.49,1.22,10.66,10.66,0,0,1,4,2.62,11,11,0,0,1,2.63,4,19.47,19.47,0,0,1,1.21,6.49c.17,3.71.22,4.82.22,14.15S445.53,375.48,445.36,379.15Z" transform="translate(-219.75 -274.57)"/><path id="_Compound_Path_2" data-name="&lt;Compound Path&gt;" class="cls-1" d="M416.86,347a18,18,0,1,0,18,18A18,18,0,0,0,416.86,347Zm0,29.67A11.69,11.69,0,1,1,428.54,365,11.69,11.69,0,0,1,416.86,376.69Z" transform="translate(-219.75 -274.57)"/><circle id="_Path_" data-name="&lt;Path&gt;" class="cls-1" cx="215.8" cy="71.75" r="4.19"/></g><text x="-219.75" y="-274.57"></text><text class="cls-2" transform="translate(238.75 108.93)">InstaProfile</text></svg>