<svg xmlns="http://www.w3.org/2000/svg" viewBox="0 0 402.27 81.18"><defs><style>.cls-1{stroke:#fff;stroke-miterlimit:10;stroke-width:3.9px;}.cls-2{font-size:72px;font-family:Rajdhani-Light, Rajdhani;}</style></defs><title>AAsset 1</title><g id="Layer_2" data-name="Layer 2"><g id="Layer_1-2" data-name="Layer 1"><g id="_Group_" data-name="&lt;Group&gt;"><path id="_Compound_Path_" data-name="&lt;Compound Path&gt;" class="cls-1" d="M70.11,17.73a17.07,17.07,0,0,0-4-6.2,17,17,0,0,0-6.19-4,25.66,25.66,0,0,0-8.5-1.62c-3.73-.16-4.92-.22-14.44-.22s-10.71,0-14.44.22A25.5,25.5,0,0,0,14,7.5a17,17,0,0,0-6.19,4,17.07,17.07,0,0,0-4,6.2,25.29,25.29,0,0,0-1.62,8.49C2,30,2,31.14,2,40.66s0,10.71.22,14.45A25.24,25.24,0,0,0,3.79,63.6a17,17,0,0,0,4,6.19,17,17,0,0,0,6.19,4,25.63,25.63,0,0,0,8.5,1.63c3.73.16,4.92.21,14.44.21s10.71,0,14.44-.21a25.47,25.47,0,0,0,8.5-1.63A17.86,17.86,0,0,0,70.11,63.6a25.4,25.4,0,0,0,1.62-8.49c.17-3.74.22-4.93.22-14.45s0-10.71-.22-14.44A25.19,25.19,0,0,0,70.11,17.73ZM65.43,54.81a19,19,0,0,1-1.22,6.49,10.82,10.82,0,0,1-2.62,4,11,11,0,0,1-4,2.62,19.09,19.09,0,0,1-6.49,1.22c-3.71.16-4.79.22-14.15.22s-10.46,0-14.14-.22A18.91,18.91,0,0,1,16.29,68a10.66,10.66,0,0,1-4-2.62,11,11,0,0,1-2.63-4,19.34,19.34,0,0,1-1.22-6.49C8.25,51.1,8.2,50,8.2,40.66s0-10.47.21-14.14A19.3,19.3,0,0,1,9.63,20a10.84,10.84,0,0,1,2.63-4,11,11,0,0,1,4-2.62,19.34,19.34,0,0,1,6.49-1.22c3.7-.16,4.81-.21,14.14-.21s10.47,0,14.15.21a19.22,19.22,0,0,1,6.49,1.22,10.94,10.94,0,0,1,4,2.62,10.82,10.82,0,0,1,2.62,4,19.22,19.22,0,0,1,1.22,6.5c.16,3.7.22,4.81.22,14.14S65.59,51.13,65.43,54.81Z"/><path id="_Compound_Path_2" data-name="&lt;Compound Path&gt;" class="cls-1" d="M36.92,22.67a18,18,0,1,0,18,18A18,18,0,0,0,36.92,22.67Zm0,29.68A11.69,11.69,0,1,1,48.61,40.66,11.69,11.69,0,0,1,36.92,52.35Z"/><circle id="_Path_" data-name="&lt;Path&gt;" class="cls-1" cx="55.61" cy="21.97" r="4.19"/></g><text class="cls-2" transform="translate(78.57 59.15)">InstaProfile</text></g></g></svg>